<?xml version="1.0" encoding="utf-8"?>
<!-- Generator: Adobe Illustrator 22.1.0, SVG Export Plug-In . SVG Version: 6.00 Build 0)  -->
<svg version="1.1" id="Laag_1" xmlns="http://www.w3.org/2000/svg" xmlns:xlink="http://www.w3.org/1999/xlink" x="0px" y="0px"
	 viewBox="0 0 445 369" style="enable-background:new 0 0 445 369;" xml:space="preserve">
<style type="text/css">
	.st0{fill:none;}
	.st1{fill:#ED7062;}
	.st2{fill:#2A4162;}
	.st3{fill:#A8ABA8;}
	.st4{fill:#747F7B;}
	.st5{fill:#27234E;}
	.st6{fill:#DA4741;}
	.st7{fill:#888BA2;}
	.st8{fill:#CCCCCB;}
	.st9{fill:#F5B2A2;}
</style>
<path class="st0" d="M267.2,267.8l-14.5-38.5h-72l-14.5,38.5c-2.8,6.9-7.6,10.4-14.4,10.4c-6.8,0-11.7-2.4-14.7-7.3
	c-3-4.8-3.6-9.8-1.8-15l65.5-174.5c1.4-3.2,3.5-5.7,6.4-7.7c2.9-2,6-2.9,9.3-2.7c7.5-0.4,12.7,3.1,15.7,10.4L297.8,256
	c1.8,5.1,1.2,10.1-1.8,15c-3,4.8-7.8,7.3-14.7,7.3C274.5,278.2,269.8,274.8,267.2,267.8z M192.6,196.7h48l-24-63.7L192.6,196.7z"/>
<polygon class="st1" points="290.6,234.1 397,94.3 223.2,55.7 "/>
<polygon class="st2" points="200.9,81.5 126.8,278.2 51.7,106.5 "/>
<polygon class="st3" points="147.3,318.2 180.7,229.3 252.7,229.3 280.8,300.8 "/>
<polygon class="st2" points="192.6,196.7 216.6,133 240.6,196.7 "/>
<polygon class="st4" points="147.3,318.2 194.8,262 240.6,251.7 276.5,289.6 252.7,229.3 180.7,229.3 "/>
<polygon class="st5" points="196.4,186.6 228.6,164.9 216.6,133 "/>
<polygon class="st5" points="157.5,196.7 168.9,106.5 74.2,119 73.3,155.9 51.7,106.5 200.9,81.5 "/>
<polygon class="st6" points="259.4,152.7 254.2,74.5 372.8,104.1 356.9,146.9 397,94.3 218.3,43 "/>
<polygon class="st7" points="51.7,106.5 56.7,153.9 126.8,278.2 "/>
<polygon class="st8" points="147.3,318.2 155.5,331 267.2,314.1 280.8,300.8 "/>
<polygon class="st9" points="397,94.3 393.9,129.4 290.6,234.1 "/>
</svg>
